<svg width="14" height="18" viewBox="0 0 14 18" fill="none" xmlns="http://www.w3.org/2000/svg">
<path fill-rule="evenodd" clip-rule="evenodd" d="M9.49992 0.666687C9.79247 0.666694 10.0799 0.743708 10.3332 0.889989C10.5866 1.03627 10.797 1.24666 10.9433 1.50002H11.9999C12.4419 1.50002 12.8659 1.67561 13.1784 1.98818C13.491 2.30074 13.6666 2.72466 13.6666 3.16669V13.1667C13.6666 14.2718 13.2276 15.3316 12.4462 16.113C11.6648 16.8944 10.605 17.3334 9.49992 17.3334H1.99992C1.55789 17.3334 1.13397 17.1578 0.821407 16.8452C0.508847 16.5326 0.333252 16.1087 0.333252 15.6667V3.16669C0.333252 2.72466 0.508847 2.30074 0.821407 1.98818C1.13397 1.67561 1.55789 1.50002 1.99992 1.50002H3.05659C3.20286 1.24666 3.41325 1.03627 3.66661 0.889989C3.91997 0.743708 4.20736 0.666694 4.49992 0.666687H9.49992ZM2.83325 3.16669H1.99992V15.6667H9.49992C10.163 15.6667 10.7988 15.4033 11.2677 14.9345C11.7365 14.4656 11.9999 13.8297 11.9999 13.1667V3.16669H11.1666C11.1666 3.60871 10.991 4.03264 10.6784 4.3452C10.3659 4.65776 9.94195 4.83335 9.49992 4.83335H4.49992C4.05789 4.83335 3.63397 4.65776 3.32141 4.3452C3.00885 4.03264 2.83325 3.60871 2.83325 3.16669ZM10.5316 6.81585C10.6878 6.97213 10.7756 7.18405 10.7756 7.40502C10.7756 7.62599 10.6878 7.83791 10.5316 7.99419L6.40658 12.1192C6.25031 12.2754 6.03839 12.3632 5.81742 12.3632C5.59645 12.3632 5.38452 12.2754 5.22825 12.1192L3.46159 10.3509C3.31343 10.1931 3.23246 9.98386 3.23582 9.76745C3.23918 9.55105 3.32661 9.34444 3.47959 9.19135C3.63258 9.03825 3.83912 8.95069 4.05553 8.94717C4.27193 8.94366 4.48121 9.02447 4.63908 9.17252L5.81825 10.3509L9.35325 6.81585C9.50952 6.65963 9.72145 6.57186 9.94242 6.57186C10.1634 6.57186 10.3753 6.65963 10.5316 6.81585ZM9.49992 2.33335H4.49992V3.16669H9.49992V2.33335Z" fill="#84A9FF"/>
</svg>
